<?xml version="1.0" encoding="utf-8"?>
<!-- Generator: Adobe Illustrator 19.2.0, SVG Export Plug-In . SVG Version: 6.00 Build 0)  -->
<svg version="1.1" id="Layer_1" xmlns="http://www.w3.org/2000/svg" xmlns:xlink="http://www.w3.org/1999/xlink" x="0px" y="0px"
	 viewBox="0 0 581.9 74" style="enable-background:new 0 0 581.9 74;" xml:space="preserve">
<style type="text/css">
	.st0{fill:#1B2E32;}
	.st1{fill:none;stroke:#1B2E32;stroke-miterlimit:10;}
	.st2{fill:none;stroke:#1B2E32;stroke-width:0.5;stroke-miterlimit:10;}
	.st3{fill:#F5FAFA;stroke:#1B2E32;stroke-width:0.5;stroke-miterlimit:10;}
	.st4{fill:none;stroke:#1B2E32;stroke-width:1.1257;stroke-miterlimit:10;}
	.st5{fill:none;stroke:#1B2E32;stroke-width:0.3641;stroke-miterlimit:10;}
</style>
<g>
	<g>
		<g>
			<g>
				<path class="st0" d="M564,52.8c5.9-5.3,11.8-10.5,17.8-15.8c0.2-0.2,0.2-0.5,0-0.7c-6-5.3-12-10.7-18-16
					c-0.5-0.4-1.2,0.3-0.7,0.7c5.2,4.6,10.4,9.2,15.5,13.8c0.7,0.6,1.5,1.7,2.4,2.1c-0.3-0.1,0.4-0.5-0.2-0.4
					c-0.3,0.1-0.8,0.7-1.1,0.9c-3,2.7-6,5.3-9,8c-2.5,2.2-4.9,4.4-7.4,6.6C562.8,52.5,563.5,53.2,564,52.8L564,52.8z"/>
			</g>
		</g>
		<g>
			<g>
				<path class="st0" d="M531.1,20.3c-5.9,5.3-11.8,10.5-17.8,15.8c-0.2,0.2-0.2,0.5,0,0.7c6,5.3,12,10.7,18,16
					c0.5,0.4,1.2-0.3,0.7-0.7c-5.2-4.6-10.4-9.2-15.5-13.8c-0.7-0.6-1.5-1.7-2.4-2.1c0.3,0.1-0.4,0.5,0.2,0.4
					c0.3-0.1,0.8-0.7,1.1-0.9c3-2.7,6-5.3,9-8c2.5-2.2,4.9-4.4,7.4-6.6C532.3,20.6,531.5,19.9,531.1,20.3L531.1,20.3z"/>
			</g>
		</g>
		<g>
			<g>
				<path class="st0" d="M555.2,10c-5.2,15.7-10.4,31.4-15.5,47.1c-0.7,2.2-1.5,4.5-2.2,6.7c-0.2,0.6,0.8,0.9,1,0.3
					c5.2-15.7,10.4-31.4,15.5-47.1c0.7-2.2,1.5-4.5,2.2-6.7C556.4,9.7,555.4,9.4,555.2,10L555.2,10z"/>
			</g>
		</g>
	</g>
	<g>
		<line class="st1" x1="358.9" y1="13.2" x2="397.9" y2="13.2"/>
		<line class="st1" x1="358.9" y1="61.2" x2="397.9" y2="61.2"/>
		<circle class="st2" cx="378.2" cy="66.3" r="2.8"/>
		<circle class="st2" cx="369.8" cy="6.9" r="1.4"/>
		<path class="st1" d="M393.9,73.5h-31c-2.2,0-4-1.8-4-4v-65c0-2.2,1.8-4,4-4h31c2.2,0,4,1.8,4,4v65
			C397.9,71.7,396.2,73.5,393.9,73.5z"/>
		<g>
			<g>
				<path class="st0" d="M374.2,7.4c3.7,0,7.5,0,11.2,0c0.6,0,0.6-1,0-1c-3.7,0-7.5,0-11.2,0C373.6,6.4,373.6,7.4,374.2,7.4
					L374.2,7.4z"/>
			</g>
		</g>
	</g>
	<g>
		<g>
			<path class="st1" d="M0.6,7.4c-0.2,11.2,0,31.3,0,41.9c0,3.5-0.5,6,4.7,6.3c4.9,0.3,50.8-0.1,67.8-0.1c2.6,0,6.4,0.7,6.4-4.5
				c0-4.9,0.3-30.6,0.4-41.6c0-2,0-5.2-6.6-5.2c0,0-48.6,0-65.6,0C5.2,4.2,0.7,2.9,0.6,7.4z"/>
			<circle class="st3" cx="40.8" cy="47.4" r="2.8"/>
			<line class="st4" x1="0.9" y1="40.1" x2="79.9" y2="40.2"/>
			<g>
				<g>
					<path class="st0" d="M31.1,61.4c-0.3,1.4-0.7,2.8-0.9,4.2c-0.2,1-0.7,2.4-0.1,3.3c0.5,0.9,2,1.2,2.9,1.5
						c2.6,0.6,5.3,0.6,7.9,0.6c2.5,0,5-0.1,7.5-0.7c0.9-0.2,2.5-0.5,3-1.4c0.5-0.9,0.1-2.2-0.1-3.1c-0.3-1.5-0.6-3-1-4.4
						c-0.2-0.7-1.3-0.4-1.1,0.3c0.2,0.8,0.4,1.6,0.6,2.4c0.2,0.9,1,3.1,0.7,3.9c-0.4,1-2.2,1.2-3.2,1.4c-2.1,0.4-4.2,0.4-6.4,0.5
						c-2.2,0-4.4,0-6.5-0.4c-1.1-0.2-3-0.3-3.4-1.5c-0.3-0.9,0.5-3,0.7-3.9c0.2-0.8,0.4-1.6,0.6-2.4C32.4,61,31.3,60.7,31.1,61.4
						L31.1,61.4z"/>
				</g>
			</g>
		</g>
		<g>
			<path class="st5" d="M27.7,34.5H12.2c-0.6,0-1-0.4-1-1V11.8c0-0.6,0.4-1,1-1h15.5c0.6,0,1,0.4,1,1v21.7
				C28.7,34.1,28.3,34.5,27.7,34.5z"/>
			<g>
				<g>
					<g>
						<path class="st0" d="M14,31.6c4,0,8,0,12,0c0.2,0,0.2-0.4,0-0.4c-4,0-8,0-12,0C13.7,31.3,13.7,31.6,14,31.6L14,31.6z"/>
					</g>
				</g>
				<g>
					<g>
						<path class="st0" d="M14,28.7c4,0,8,0,12,0c0.2,0,0.2-0.4,0-0.4c-4,0-8,0-12,0C13.7,28.3,13.7,28.7,14,28.7L14,28.7z"/>
					</g>
				</g>
				<g>
					<g>
						<path class="st0" d="M14.1,25.7c3.9,0,7.9,0,11.8,0c0.2,0,0.2-0.4,0-0.4c-3.9,0-7.9,0-11.8,0C13.9,25.4,13.9,25.7,14.1,25.7
							L14.1,25.7z"/>
					</g>
				</g>
			</g>
			<g>
				<line class="st5" x1="15.4" y1="22.1" x2="24.8" y2="13.7"/>
				<line class="st5" x1="15.5" y1="13.8" x2="24.9" y2="21.9"/>
				<g>
					<path class="st5" d="M23.9,22.1H16c-0.6,0-1-0.4-1-1v-6.8c0-0.6,0.4-1,1-1h7.9c0.6,0,1,0.4,1,1v6.8
						C24.9,21.6,24.5,22.1,23.9,22.1z"/>
				</g>
			</g>
			<path class="st5" d="M48,34.5H32.5c-0.6,0-1-0.4-1-1V11.8c0-0.6,0.4-1,1-1H48c0.6,0,1,0.4,1,1v21.7C49,34.1,48.5,34.5,48,34.5z"
				/>
			<g>
				<g>
					<g>
						<path class="st0" d="M34.3,31.6c4,0,8,0,12,0c0.2,0,0.2-0.4,0-0.4c-4,0-8,0-12,0C34,31.3,34,31.6,34.3,31.6L34.3,31.6z"/>
					</g>
				</g>
				<g>
					<g>
						<path class="st0" d="M34.3,28.7c4,0,8,0,12,0c0.2,0,0.2-0.4,0-0.4c-4,0-8,0-12,0C34,28.3,34,28.7,34.3,28.7L34.3,28.7z"/>
					</g>
				</g>
				<g>
					<g>
						<path class="st0" d="M34.4,25.7c3.9,0,7.9,0,11.8,0c0.2,0,0.2-0.4,0-0.4c-3.9,0-7.9,0-11.8,0C34.2,25.4,34.2,25.7,34.4,25.7
							L34.4,25.7z"/>
					</g>
				</g>
			</g>
			<g>
				<line class="st5" x1="35.7" y1="22" x2="45.1" y2="13.8"/>
				<line class="st5" x1="35.8" y1="13.8" x2="45.2" y2="22.1"/>
				<g>
					<path class="st5" d="M44.2,22.1h-7.9c-0.6,0-1-0.4-1-1v-6.8c0-0.6,0.4-1,1-1h7.9c0.6,0,1,0.4,1,1v6.8
						C45.2,21.6,44.8,22.1,44.2,22.1z"/>
				</g>
			</g>
			<path class="st5" d="M68.2,34.5H52.7c-0.6,0-1-0.4-1-1V11.8c0-0.6,0.4-1,1-1h15.5c0.6,0,1,0.4,1,1v21.7
				C69.2,34.1,68.7,34.5,68.2,34.5z"/>
			<g>
				<g>
					<g>
						<g>
							<path class="st0" d="M54.4,31.6c4,0,8,0,12,0c0.2,0,0.2-0.4,0-0.4c-4,0-8,0-12,0C54.2,31.3,54.2,31.6,54.4,31.6L54.4,31.6z"
								/>
						</g>
					</g>
					<g>
						<g>
							<path class="st0" d="M54.4,28.7c4,0,8,0,12,0c0.2,0,0.2-0.4,0-0.4c-4,0-8,0-12,0C54.2,28.3,54.2,28.7,54.4,28.7L54.4,28.7z"
								/>
						</g>
					</g>
					<g>
						<g>
							<path class="st0" d="M54.6,25.7c3.9,0,7.9,0,11.8,0c0.2,0,0.2-0.4,0-0.4c-3.9,0-7.9,0-11.8,0C54.4,25.4,54.4,25.7,54.6,25.7
								L54.6,25.7z"/>
						</g>
					</g>
				</g>
				<g>
					<line class="st5" x1="55.8" y1="22" x2="65.2" y2="13.7"/>
					<line class="st5" x1="55.9" y1="13.8" x2="65.3" y2="22"/>
					<g>
						<path class="st5" d="M64.4,22.1h-7.9c-0.6,0-1-0.4-1-1v-6.8c0-0.6,0.4-1,1-1h7.9c0.6,0,1,0.4,1,1v6.8
							C65.4,21.6,64.9,22.1,64.4,22.1z"/>
					</g>
				</g>
			</g>
		</g>
	</g>
	<g>
		<line class="st1" x1="221.9" y1="61.2" x2="229.9" y2="61.2"/>
		<line class="st1" x1="217.9" y1="12.2" x2="232.9" y2="12.2"/>
		<g>
			<g>
				<path class="st0" d="M222.1,17.8c0,6.7,0,13.5,0,20.2c0,0.6,1,0.6,1,0c0-6.7,0-13.5,0-20.2C223.1,17.2,222.1,17.2,222.1,17.8
					L222.1,17.8z"/>
			</g>
		</g>
		<path class="st1" d="M218.6,48.7l4.5-4.3c0.3-0.3,0.8-0.4,1.2-0.2l8.8,4.2"/>
		<line class="st1" x1="192.9" y1="60.2" x2="202.9" y2="60.2"/>
		<line class="st1" x1="197.9" y1="51.2" x2="203.9" y2="51.2"/>
		<line class="st1" x1="197.9" y1="32.2" x2="202.9" y2="32.2"/>
		<line class="st1" x1="194.9" y1="22.2" x2="202.9" y2="22.2"/>
		<line class="st1" x1="197.9" y1="11.2" x2="202.9" y2="11.2"/>
		<line class="st1" x1="194.9" y1="41.2" x2="203.9" y2="41.2"/>
		<path class="st1" d="M185.3,4.5v65c0,0.6,0.5,1.1,1.1,1.1h16c0.6,0,1.1-0.5,1.1-1.1v-65c0-0.6-0.5-1.1-1.1-1.1h-16
			C185.8,3.5,185.3,3.9,185.3,4.5z"/>
		<path class="st1" d="M233.2,48.3l-6.4,20c-0.3,1-1.7,1-2,0l-6.2-19.8l-0.8-44c0-0.6,0.5-1.1,1.1-1.1H232c0.6,0,1.1,0.5,1.1,1.1
			C233.2,11.3,233.4,48.1,233.2,48.3z"/>
	</g>
</g>
</svg>
